# xmcd
#
# Track frame offsets:
#	150
#	14585
#	33921
#	51039
#	68516
#	87702
#	104608
#	124990
#	138461
#	157082
#	173186
#
# Disc length: 2527 seconds
# Revision: 0
# Processed by: cddbd v1.5.2PL0 Copyright (c) Steve Scherf et al.
# Submitted via: dBpowerAMP V12.0
#
DISCID=9b09dd0b
DTITLE=David Benedict - The Golden Angle
DYEAR=2018
DGENRE=Bluegrass
TTITLE0=Dorrigo
TTITLE1=High Stepping Jessy
TTITLE2=Possible Water
TTITLE3=The Golden Angle
TTITLE4=Waltz For Griffin
TTITLE5=8 Is My Favorite Color
TTITLE6=Leaf By Niggle
TTITLE7=Lawnmower
TTITLE8=Madrona
TTITLE9=The Red Room
TTITLE10=Colonna and Smalls
EXTD=
EXTT0=
EXTT1=
EXTT2=
EXTT3=
EXTT4=
EXTT5=
EXTT6=
EXTT7=
EXTT8=
EXTT9=
EXTT10=
PLAYORDER=
